<svg width="11" height="20" viewBox="0 0 11 20" fill="none" xmlns="http://www.w3.org/2000/svg">
<g id="eva:arrow-down-fill" clip-path="url(#clip0_44_127)">
<g id="evaArrowDownFill0">
<g id="evaArrowDownFill1">
<path id="evaArrowDownFill2" d="M5.47656 14.1667C5.26382 14.1656 5.05398 14.1172 4.86228 14.0249C4.67057 13.9327 4.50181 13.7989 4.36823 13.6334L0.859893 9.38335C0.654888 9.12749 0.525881 8.81919 0.487573 8.49358C0.449266 8.16796 0.503199 7.83814 0.643226 7.54169C0.756792 7.28404 0.94212 7.06453 1.17708 6.90937C1.41203 6.75421 1.68668 6.66996 1.96823 6.66669H8.98489C9.26644 6.66996 9.54109 6.75421 9.77604 6.90937C10.011 7.06453 10.1963 7.28404 10.3099 7.54169C10.4499 7.83814 10.5039 8.16796 10.4655 8.49358C10.4272 8.81919 10.2982 9.12749 10.0932 9.38335L6.58489 13.6334C6.45131 13.7989 6.28255 13.9327 6.09084 14.0249C5.89914 14.1172 5.6893 14.1656 5.47656 14.1667Z" fill="#E49011"/>
</g>
</g>
</g>
<defs>
<clipPath id="clip0_44_127">
<rect width="10" height="20" fill="white" transform="translate(0.476562)"/>
</clipPath>
</defs>
</svg>
