<svg width="21" height="21" viewBox="0 0 21 21" fill="none" xmlns="http://www.w3.org/2000/svg">
<g id="Frame">
<path id="Vector" d="M10.8475 4.19C10.1245 4.19 9.54352 4.8 9.54352 5.557C9.54352 6.317 10.1245 6.926 10.8475 6.926C11.5715 6.926 12.1525 6.317 12.1525 5.557C12.1525 4.8 11.5715 4.19 10.8475 4.19ZM10.4365 7.327H10.0965C9.65652 7.327 9.17352 7.447 8.82052 7.653C8.04152 8.099 7.51552 8.515 7.18752 9.081C6.80652 9.75 6.76352 10.508 6.76352 11.562C6.76352 11.86 6.99052 12.099 7.27452 12.114C7.55652 12.114 7.78352 11.876 7.79852 11.579V11.562C7.79852 10.552 7.85452 10.018 8.06752 9.63C8.23952 9.333 8.55152 9.051 9.13152 8.693L8.66452 11.058L8.62052 11.252C8.56452 11.548 8.60752 11.787 8.76352 12.039L9.65652 13.481L9.91252 13.897L11.9545 17.197C12.1685 17.554 12.6185 17.658 12.9625 17.436C13.3005 17.211 13.4005 16.736 13.1875 16.379L13.1735 16.364L10.4365 11.92L10.6935 10.835L10.8765 10.032L11.2595 8.368C11.3585 7.833 10.9335 7.327 10.4365 7.327ZM11.5005 9.008L11.1745 10.463C11.1865 10.478 11.2025 10.491 11.2175 10.508C11.7555 11.058 12.4515 11.264 13.4285 11.503C13.6975 11.579 13.9805 11.4 14.0535 11.116C14.1225 10.835 13.9535 10.538 13.6825 10.463H13.6705C12.7325 10.226 12.2525 10.048 11.9405 9.733C11.7705 9.587 11.6425 9.349 11.5005 9.008ZM8.40852 12.262L7.95452 14.537L6.50852 16.292C6.23852 16.603 6.26852 17.092 6.56652 17.375C6.86352 17.658 7.33052 17.627 7.59952 17.316L7.61352 17.3L9.18952 15.398C9.27252 15.295 9.33152 15.174 9.35852 15.04L9.54352 14.092L8.40852 12.262Z" fill="#717171"/>
</g>
</svg>
