<svg width="26" height="26" viewBox="0 0 26 26" fill="none" xmlns="http://www.w3.org/2000/svg">
<g id="Frame">
<path id="Vector" d="M12.8004 2.47424C7.12482 2.47424 2.53711 7.06195 2.53711 12.7376C2.53711 18.4132 7.12482 23.0009 12.8004 23.0009C18.4761 23.0009 23.0638 18.4132 23.0638 12.7376C23.0638 7.06195 18.4761 2.47424 12.8004 2.47424ZM17.2137 17.1508C17.1187 17.246 17.0059 17.3214 16.8818 17.3729C16.7576 17.4244 16.6245 17.451 16.4901 17.451C16.3557 17.451 16.2226 17.4244 16.0984 17.3729C15.9743 17.3214 15.8615 17.246 15.7665 17.1508L12.8004 14.1847L9.83434 17.1508C9.64244 17.3427 9.38216 17.4505 9.11077 17.4505C8.83938 17.4505 8.57911 17.3427 8.38721 17.1508C8.19531 16.9589 8.0875 16.6986 8.0875 16.4272C8.0875 16.2929 8.11397 16.1598 8.16539 16.0357C8.21682 15.9115 8.29219 15.7987 8.38721 15.7037L11.3533 12.7376L8.38721 9.77147C8.19531 9.57957 8.0875 9.3193 8.0875 9.04791C8.0875 8.77652 8.19531 8.51624 8.38721 8.32434C8.57911 8.13244 8.83938 8.02463 9.11077 8.02463C9.38216 8.02463 9.64244 8.13244 9.83434 8.32434L12.8004 11.2904L15.7665 8.32434C15.8616 8.22932 15.9744 8.15395 16.0985 8.10252C16.2227 8.0511 16.3557 8.02463 16.4901 8.02463C16.6245 8.02463 16.7576 8.0511 16.8817 8.10252C17.0059 8.15395 17.1187 8.22932 17.2137 8.32434C17.3087 8.41936 17.3841 8.53217 17.4355 8.65632C17.4869 8.78047 17.5134 8.91353 17.5134 9.04791C17.5134 9.18229 17.4869 9.31535 17.4355 9.4395C17.3841 9.56365 17.3087 9.67645 17.2137 9.77147L14.2476 12.7376L17.2137 15.7037C17.6037 16.0937 17.6037 16.7505 17.2137 17.1508Z" fill="#6A696E"/>
</g>
</svg>
