<svg width="25" height="26" viewBox="0 0 25 26" fill="none" xmlns="http://www.w3.org/2000/svg">
<g id="Frame">
<g id="Group">
<path id="Vector" d="M12.4183 5.66043C14.2454 5.66043 15.8816 6.29011 17.1719 7.51849L20.7074 3.98301C18.5603 1.98559 15.7577 0.757202 12.4183 0.757202C7.57706 0.757202 3.39125 3.53398 1.35254 7.58043L5.47125 10.7753C6.44673 7.83849 9.18738 5.66043 12.4183 5.66043Z" fill="#EA4335"/>
<path id="Vector_2" d="M24.2806 13.4282C24.2806 12.6179 24.2031 11.8334 24.0844 11.0798H12.4199V15.7353H19.0986C18.7993 17.2631 17.9322 18.5637 16.6315 19.4411L20.6212 22.5379C22.949 20.3805 24.2806 17.1908 24.2806 13.4282Z" fill="#4285F4"/>
<path id="Vector_3" d="M5.46706 15.5133C5.21932 14.765 5.07481 13.9701 5.07481 13.1443C5.07481 12.3185 5.21416 11.5237 5.46706 10.7753L1.34836 7.58044C0.507065 9.2527 0.0322266 11.1417 0.0322266 13.1443C0.0322266 15.1469 0.507065 17.0359 1.35352 18.7082L5.46706 15.5133Z" fill="#FBBC05"/>
<path id="Vector_4" d="M12.4196 25.5314C15.7641 25.5314 18.577 24.432 20.6209 22.5327L16.6312 19.4359C15.5215 20.1843 14.0919 20.623 12.4196 20.623C9.18863 20.623 6.44799 18.445 5.46734 15.5082L1.34863 18.703C3.3925 22.7546 7.57831 25.5314 12.4196 25.5314Z" fill="#34A853"/>
</g>
</g>
</svg>
