<svg width="42" height="42" viewBox="0 0 42 42" fill="none" xmlns="http://www.w3.org/2000/svg">
<g id="Frame">
<path id="Vector" d="M34.2251 0.144287H8.41869C4.1445 0.144287 0.676758 3.61203 0.676758 7.88622V33.6927C0.676758 37.9669 4.1445 41.4346 8.41869 41.4346H34.2251C38.4993 41.4346 41.9671 37.9669 41.9671 33.6927V7.88622C41.9671 3.61203 38.4993 0.144287 34.2251 0.144287ZM33.1768 22.3837H29.312V36.6828H22.8604V22.3837H20.3542V17.5636H22.8604V14.4929C22.8604 10.4731 24.5291 8.08473 29.2748 8.08473H34.0763V12.8862H31.2847C29.4423 12.8862 29.3182 13.5686 29.3182 14.8589L29.312 17.5636H33.7041L33.1768 22.3837Z" fill="white"/>
</g>
</svg>
