<svg width="59" height="59" viewBox="0 0 59 59" fill="none" xmlns="http://www.w3.org/2000/svg">
<g id="gg:profile">
<g id="Group">
<path id="Vector" fill-rule="evenodd" clip-rule="evenodd" d="M39.3669 22.4738C39.3669 25.0413 38.3451 27.5037 36.5264 29.3192C34.7077 31.1347 32.2411 32.1547 29.669 32.1547C27.097 32.1547 24.6303 31.1347 22.8116 29.3192C20.9929 27.5037 19.9712 25.0413 19.9712 22.4738C19.9712 19.9063 20.9929 17.4439 22.8116 15.6284C24.6303 13.8129 27.097 12.7929 29.669 12.7929C32.2411 12.7929 34.7077 13.8129 36.5264 15.6284C38.3451 17.4439 39.3669 19.9063 39.3669 22.4738ZM34.5179 22.4738C34.5179 23.7576 34.0071 24.9887 33.0977 25.8965C32.1884 26.8043 30.955 27.3142 29.669 27.3142C28.383 27.3142 27.1497 26.8043 26.2403 25.8965C25.331 24.9887 24.8201 23.7576 24.8201 22.4738C24.8201 21.19 25.331 19.9588 26.2403 19.0511C27.1497 18.1433 28.383 17.6334 29.669 17.6334C30.955 17.6334 32.1884 18.1433 33.0977 19.0511C34.0071 19.9588 34.5179 21.19 34.5179 22.4738Z" fill="#E49011"/>
<path id="Vector_2" fill-rule="evenodd" clip-rule="evenodd" d="M29.6695 3.11206C14.941 3.11206 3.00049 15.0317 3.00049 29.7345C3.00049 44.4374 14.941 56.357 29.6695 56.357C44.3981 56.357 56.3386 44.4374 56.3386 29.7345C56.3386 15.0317 44.3981 3.11206 29.6695 3.11206ZM7.84941 29.7345C7.84941 34.7928 9.57805 39.4493 12.4753 43.1474C14.51 40.4801 17.1348 38.3184 20.1449 36.8314C23.1549 35.3443 26.4686 34.5721 29.8271 34.575C33.1422 34.5718 36.4142 35.3241 39.3939 36.7744C42.3736 38.2248 44.9824 40.3349 47.0214 42.9441C49.1221 40.1938 50.5365 36.9836 51.1476 33.5793C51.7587 30.1749 51.5489 26.6742 50.5356 23.3669C49.5224 20.0595 47.7347 17.0406 45.3206 14.5598C42.9065 12.0791 39.9353 10.2078 36.6529 9.10092C33.3705 7.99403 29.8713 7.68331 26.4447 8.19446C23.0181 8.70562 19.7627 10.024 16.9478 12.0404C14.133 14.0568 11.8396 16.7134 10.2575 19.7903C8.67529 22.8672 7.84985 26.2759 7.84941 29.7345ZM29.6695 51.5165C24.6605 51.524 19.8026 49.8038 15.918 46.647C17.4816 44.4125 19.5628 42.5881 21.9845 41.329C24.4062 40.07 27.0967 39.4135 29.8271 39.4154C32.5235 39.4133 35.1815 40.0533 37.5804 41.2824C39.9792 42.5115 42.0497 44.2942 43.6199 46.4825C39.7051 49.7418 34.7672 51.5237 29.6695 51.5165Z" fill="#E49011"/>
</g>
</g>
</svg>
