<?xml version="1.0" standalone="no"?>
<!DOCTYPE svg PUBLIC "-//W3C//DTD SVG 20010904//EN"
 "http://www.w3.org/TR/2001/REC-SVG-20010904/DTD/svg10.dtd">
<svg version="1.0" xmlns="http://www.w3.org/2000/svg"
 width="500.000000pt" height="500.000000pt" viewBox="0 0 500.000000 500.000000"
 preserveAspectRatio="xMidYMid meet">

<g transform="translate(0.000000,500.000000) scale(0.100000,-0.100000)"
fill="#000000" stroke="none">
<path d="M1750 1935 l0 -215 39 0 c80 0 114 64 114 213 0 94 -14 153 -44 191
-17 21 -29 26 -65 26 l-44 0 0 -215z m97 135 c7 -19 12 -80 12 -135 0 -117
-14 -169 -46 -173 l-23 -3 0 176 0 176 23 -3 c15 -2 26 -14 34 -38z"/>
<path d="M1980 1935 l0 -215 65 0 c58 0 65 2 65 20 0 17 -7 20 -45 20 l-45 0
0 79 0 80 38 3 c25 2 37 8 37 18 0 10 -12 16 -37 18 l-38 3 0 74 0 74 42 3
c31 2 44 8 46 21 3 15 -5 17 -62 17 l-66 0 0 -215z"/>
<path d="M2170 1935 l0 -215 65 0 c58 0 65 2 65 20 0 17 -7 20 -40 20 l-40 0
0 195 0 195 -25 0 -25 0 0 -215z"/>
<path d="M2360 1935 c0 -208 1 -215 20 -215 19 0 20 7 20 215 0 208 -1 215
-20 215 -19 0 -20 -7 -20 -215z"/>
<path d="M2460 2133 c0 -10 12 -107 27 -215 l27 -198 38 0 c21 0 38 4 38 9 0
10 48 354 55 394 4 23 1 27 -19 27 -23 0 -24 -4 -47 -195 -12 -107 -26 -192
-29 -188 -4 5 -15 80 -24 168 -22 209 -23 215 -47 215 -11 0 -19 -7 -19 -17z"/>
<path d="M2700 1935 l0 -215 65 0 c58 0 65 2 65 20 0 17 -7 20 -40 20 l-40 0
0 80 0 80 35 0 c28 0 35 4 35 20 0 16 -7 20 -35 20 l-35 0 0 78 0 78 40 -4
c35 -4 40 -2 40 17 0 19 -6 21 -65 21 l-65 0 0 -215z"/>
<path d="M2900 1936 c0 -209 1 -216 20 -216 19 0 20 7 20 100 l0 100 29 0 c37
0 41 -12 41 -116 0 -83 0 -84 25 -84 24 0 25 2 25 74 0 75 -12 125 -32 137 -7
5 -5 15 6 30 10 14 16 44 16 76 0 73 -27 104 -98 111 l-52 5 0 -217z m91 163
c18 -18 21 -30 17 -76 -5 -55 -19 -75 -48 -70 -11 2 -16 19 -18 71 -4 100 7
117 49 75z"/>
<path d="M3100 2138 c0 -7 13 -65 29 -128 16 -63 32 -154 36 -202 6 -77 9 -88
26 -88 17 0 19 8 19 72 0 59 32 222 66 341 4 13 -1 17 -19 17 -22 0 -24 -5
-42 -117 -10 -65 -21 -122 -25 -126 -4 -4 -15 39 -24 95 -25 147 -26 148 -47
148 -10 0 -19 -6 -19 -12z"/>
<path d="M1890 1444 c0 -152 1 -165 18 -162 14 3 18 16 20 71 2 52 6 67 18 67
8 0 26 11 39 25 19 18 25 35 25 70 0 59 -32 95 -85 95 l-35 0 0 -166z m84 94
c11 -43 -4 -88 -29 -88 -12 0 -15 14 -15 66 0 57 2 65 18 62 10 -2 21 -18 26
-40z"/>
<path d="M2067 1473 c-10 -76 -21 -150 -24 -165 -4 -24 -2 -28 16 -28 18 0 21
6 21 40 0 37 2 40 29 40 30 0 41 -14 41 -56 0 -15 6 -24 15 -24 19 0 19 18 0
156 -25 181 -22 174 -53 174 l-28 0 -17 -137z m67 -25 c6 -58 6 -58 -20 -58
l-27 0 7 63 c4 34 10 78 13 97 l7 35 7 -40 c3 -22 9 -66 13 -97z"/>
<path d="M2230 1445 l0 -165 29 0 c46 0 70 28 82 95 24 132 -11 235 -81 235
l-30 0 0 -165z m74 113 c3 -13 6 -63 6 -113 0 -109 -6 -135 -31 -135 -18 0
-19 9 -19 135 0 126 1 135 19 135 11 0 21 -9 25 -22z"/>
<path d="M2425 1578 c-15 -89 -35 -241 -35 -268 0 -20 5 -30 15 -30 11 0 15
11 15 41 0 39 1 40 33 37 28 -3 33 -7 37 -38 3 -23 11 -36 23 -38 9 -2 17 0
16 5 0 4 -10 78 -23 163 -22 153 -23 155 -49 158 -22 3 -27 -1 -32 -30z m49
-115 l7 -73 -27 0 c-25 0 -26 2 -20 43 3 23 9 67 12 97 9 66 17 46 28 -67z"/>
<path d="M2570 1445 c0 -140 2 -165 15 -165 12 0 15 15 15 75 0 72 1 75 24 75
30 0 36 -16 36 -91 0 -46 3 -59 15 -59 22 0 21 127 -1 151 -15 16 -15 20 0 41
20 28 20 61 1 97 -16 32 -33 41 -76 41 l-29 0 0 -165z m84 97 c11 -41 -5 -82
-34 -82 -18 0 -20 6 -20 61 0 57 1 60 22 57 15 -2 25 -13 32 -36z"/>
<path d="M2740 1445 c0 -140 2 -165 15 -165 13 0 15 25 15 165 0 140 -2 165
-15 165 -13 0 -15 -25 -15 -165z"/>
<path d="M2860 1598 c0 -7 -9 -71 -20 -143 -24 -157 -24 -175 -6 -175 9 0 17
15 21 40 6 35 10 40 35 40 24 0 28 -4 34 -40 4 -28 11 -40 22 -40 13 0 15 7
11 38 -3 20 -14 94 -23 165 l-17 127 -28 0 c-16 0 -29 -5 -29 -12z m45 -118
l11 -90 -26 0 -26 0 7 68 c5 37 8 80 8 96 1 55 15 16 26 -74z"/>
<path d="M3016 1594 c-19 -18 -21 -76 -5 -107 7 -12 25 -37 40 -55 34 -38 41
-108 13 -119 -21 -8 -34 13 -34 55 0 22 -5 32 -15 32 -26 0 -20 -72 8 -98 29
-27 41 -28 67 -2 34 34 27 94 -16 147 -37 45 -53 105 -35 132 15 24 41 -5 41
-46 0 -27 4 -34 18 -31 12 2 16 11 14 33 -8 66 -58 97 -96 59z"/>
</g>
</svg>
