<?xml version="1.0" standalone="no"?>
<!DOCTYPE svg PUBLIC "-//W3C//DTD SVG 20010904//EN"
 "http://www.w3.org/TR/2001/REC-SVG-20010904/DTD/svg10.dtd">
<svg version="1.0" xmlns="http://www.w3.org/2000/svg"
 width="500.000000pt" height="500.000000pt" viewBox="0 0 500.000000 500.000000"
 preserveAspectRatio="xMidYMid meet">

<g transform="translate(0.000000,500.000000) scale(0.100000,-0.100000)"
fill="#000000" stroke="none">
<path d="M990 2316 l0 -286 95 0 c190 0 269 35 328 145 31 58 31 210 1 275
-51 107 -118 140 -301 147 l-123 5 0 -286z m232 184 c86 -24 126 -96 115 -210
-10 -110 -59 -155 -182 -167 l-65 -6 0 197 0 196 48 0 c26 0 64 -5 84 -10z"/>
<path d="M1954 2591 c-10 -10 -3 -490 7 -520 13 -36 35 -51 76 -51 60 0 73 9
73 51 0 34 -3 38 -27 41 l-28 3 -3 240 -2 240 -46 0 c-25 0 -48 -2 -50 -4z"/>
<path d="M2180 2555 l0 -45 50 0 50 0 0 45 0 45 -50 0 -50 0 0 -45z"/>
<path d="M1615 2422 c-131 -61 -157 -262 -46 -355 73 -61 217 -57 271 8 11 13
9 20 -15 45 l-27 28 -32 -19 c-48 -29 -101 -25 -137 10 -55 55 -45 61 106 61
l135 0 0 48 c-1 61 -29 123 -73 156 -48 37 -126 44 -182 18z m136 -91 c51 -51
42 -61 -61 -61 -75 0 -90 3 -90 16 0 28 56 74 90 74 22 0 41 -9 61 -29z"/>
<path d="M2885 2428 c-50 -18 -79 -44 -103 -91 -44 -89 -20 -229 48 -277 70
-50 191 -47 255 5 l30 24 -33 33 c-21 21 -35 29 -40 22 -19 -29 -77 -42 -130
-28 -21 6 -52 49 -52 74 0 6 48 10 136 10 l137 0 -6 61 c-12 132 -123 209
-242 167z m119 -90 c13 -13 27 -33 31 -45 6 -23 5 -23 -84 -23 -104 0 -113 9
-62 61 36 36 80 38 115 7z"/>
<path d="M3360 2424 c-14 -10 -29 -24 -33 -31 -13 -22 -26 -15 -21 12 4 24 2
25 -46 25 l-50 0 0 -200 0 -200 43 0 44 0 6 121 c6 110 8 124 32 155 23 29 32
34 69 34 39 0 45 3 56 30 7 17 16 30 20 30 8 0 150 -348 150 -366 0 -5 -15
-48 -34 -97 l-35 -87 52 0 52 0 64 163 c35 89 85 217 111 285 l48 122 -51 0
-52 0 -50 -136 -49 -137 -16 39 c-9 22 -32 82 -51 135 l-33 97 -66 6 c-36 3
-81 8 -100 11 -25 4 -42 1 -60 -11z"/>
<path d="M2180 2230 l0 -200 50 0 50 0 0 200 0 200 -50 0 -50 0 0 -200z"/>
<path d="M2340 2423 c1 -5 36 -93 78 -198 l77 -190 40 -3 40 -3 78 193 c42
106 77 196 77 201 0 4 -22 7 -49 7 l-49 0 -36 -107 c-20 -60 -42 -121 -50
-138 l-13 -29 -18 54 c-10 30 -31 92 -47 138 l-30 82 -49 0 c-27 0 -49 -3 -49
-7z"/>
<path d="M1730 1705 c0 -25 5 -45 10 -45 6 0 10 6 10 14 0 7 9 20 21 27 26 18
16 49 -17 49 -22 0 -24 -4 -24 -45z m40 14 c0 -5 -4 -9 -10 -9 -5 0 -10 7 -10
16 0 8 5 12 10 9 6 -3 10 -10 10 -16z"/>
<path d="M1918 1705 c-10 -25 -13 -45 -8 -45 6 0 10 5 10 10 0 14 33 13 48 -2
9 -9 12 -9 12 0 0 20 -28 82 -37 82 -5 0 -16 -20 -25 -45z m32 -1 c0 -8 -5
-12 -10 -9 -6 4 -8 11 -5 16 9 14 15 11 15 -7z"/>
<path d="M2107 1743 c-4 -3 -7 -24 -7 -45 0 -33 3 -38 23 -38 29 0 47 18 47
45 0 35 -42 60 -63 38z m43 -38 c0 -16 -6 -25 -15 -25 -9 0 -15 9 -15 25 0 16
6 25 15 25 9 0 15 -9 15 -25z"/>
<path d="M2308 1708 c-10 -23 -15 -44 -12 -47 4 -3 9 0 11 7 6 15 35 16 51 0
9 -9 12 -9 12 0 0 20 -28 82 -37 82 -4 0 -16 -19 -25 -42z m32 -4 c0 -8 -5
-12 -10 -9 -6 4 -8 11 -5 16 9 14 15 11 15 -7z"/>
<path d="M2490 1706 c0 -44 12 -60 24 -33 5 10 7 10 12 0 3 -7 12 -13 20 -13
10 0 12 5 7 13 -4 6 -8 26 -8 42 0 25 -4 30 -27 33 -27 3 -28 2 -28 -42z m40
14 c0 -5 -4 -10 -10 -10 -5 0 -10 5 -10 10 0 6 5 10 10 10 6 0 10 -4 10 -10z"/>
<path d="M2670 1705 c0 -25 5 -45 10 -45 6 0 10 20 10 45 0 25 -4 45 -10 45
-5 0 -10 -20 -10 -45z"/>
<path d="M2828 1708 c-10 -23 -15 -44 -12 -47 4 -3 9 0 11 7 6 15 35 16 51 0
9 -9 12 -9 12 0 0 20 -28 82 -37 82 -4 0 -16 -19 -25 -42z m32 -4 c0 -8 -5
-12 -10 -9 -6 4 -8 11 -5 16 9 14 15 11 15 -7z"/>
<path d="M3024 1736 c-7 -19 3 -36 22 -36 8 0 14 -5 14 -11 0 -7 -10 -9 -27
-4 -23 5 -25 4 -14 -9 16 -19 42 -21 58 -5 14 14 6 39 -12 39 -8 0 -17 5 -21
11 -4 8 1 9 16 4 16 -5 21 -4 18 6 -7 20 -47 23 -54 5z"/>
</g>
</svg>
