<?xml version="1.0" standalone="no"?>
<!DOCTYPE svg PUBLIC "-//W3C//DTD SVG 20010904//EN"
 "http://www.w3.org/TR/2001/REC-SVG-20010904/DTD/svg10.dtd">
<svg version="1.0" xmlns="http://www.w3.org/2000/svg"
 width="500.000000pt" height="500.000000pt" viewBox="0 0 500.000000 500.000000"
 preserveAspectRatio="xMidYMid meet">

<g transform="translate(0.000000,500.000000) scale(0.100000,-0.100000)"
fill="#000000" stroke="none">
<path d="M1639 3848 c-57 -15 -92 -58 -96 -120 -3 -29 1 -73 8 -98 9 -31 14
-166 18 -425 l6 -380 138 -3 137 -3 1 338 c1 186 2 354 3 373 1 33 3 35 51 43
28 5 194 7 370 4 360 -5 375 -7 525 -82 142 -71 250 -166 337 -297 59 -89 87
-157 118 -283 l21 -90 140 0 139 0 -3 49 c-3 71 -37 198 -77 289 -107 248
-310 465 -537 575 -233 112 -306 122 -849 121 -232 -1 -430 -5 -450 -11z"/>
<path d="M1962 3148 l3 -323 140 0 140 0 3 183 2 182 114 0 c133 0 199 -11
274 -45 115 -53 202 -157 233 -278 l12 -48 139 2 c76 1 140 5 142 8 8 12 -41
178 -68 231 -92 180 -239 310 -432 382 -55 21 -79 22 -382 26 l-322 3 2 -323z"/>
<path d="M715 2768 c-3 -8 -4 -79 -3 -158 l3 -145 82 0 c67 0 87 4 110 21 97
72 98 195 1 267 -35 26 -184 38 -193 15z m161 -27 c58 -36 80 -120 47 -188
-22 -47 -66 -73 -125 -73 l-48 0 0 140 0 140 48 0 c28 0 59 -7 78 -19z"/>
<path d="M1300 2620 c0 -153 1 -160 20 -160 19 0 20 7 20 160 0 153 -1 160
-20 160 -19 0 -20 -7 -20 -160z"/>
<path d="M1432 2763 c5 -26 38 -29 38 -4 0 15 -6 21 -21 21 -14 0 -19 -5 -17
-17z"/>
<path d="M3269 2724 c3 -52 1 -56 -15 -49 -39 17 -94 17 -119 1 -52 -34 -57
-146 -8 -192 31 -28 87 -32 121 -8 20 14 22 14 22 0 0 -9 7 -16 15 -16 13 0
15 24 15 160 0 146 -2 160 -17 160 -16 0 -18 -8 -14 -56z m-25 -73 c12 -13 17
-36 17 -76 0 -66 -19 -95 -61 -95 -42 0 -65 33 -65 95 0 38 5 59 19 74 24 26
67 27 90 2z"/>
<path d="M3800 2760 c0 -13 7 -20 20 -20 13 0 20 7 20 20 0 13 -7 20 -20 20
-13 0 -20 -7 -20 -20z"/>
<path d="M1055 2666 c-71 -71 -23 -206 74 -206 42 0 91 17 91 32 0 11 -17 10
-24 -1 -10 -16 -59 -22 -86 -11 -25 10 -50 46 -50 70 0 6 38 10 85 10 84 0 85
0 85 25 0 34 -25 82 -49 95 -36 19 -100 12 -126 -14z m114 -7 c10 -11 21 -34
23 -50 l5 -29 -70 0 -69 0 6 32 c13 65 66 89 105 47z"/>
<path d="M1432 2578 c3 -98 5 -113 21 -116 15 -3 17 7 17 112 0 110 -1 116
-20 116 -20 0 -21 -5 -18 -112z"/>
<path d="M1549 2643 c62 -156 74 -183 86 -183 8 0 23 24 34 53 11 28 31 80 45
115 14 36 20 62 13 59 -6 -2 -27 -43 -45 -91 -19 -48 -38 -84 -42 -79 -4 4
-22 45 -40 91 -24 62 -37 82 -51 82 -18 0 -18 -1 0 -47z"/>
<path d="M1805 2666 c-47 -47 -41 -144 12 -186 31 -24 108 -27 137 -5 28 21
12 30 -18 10 -38 -25 -91 -13 -111 25 -25 47 -21 50 70 50 84 0 85 0 85 25 0
34 -25 82 -49 95 -36 19 -100 12 -126 -14z m115 -8 c11 -12 20 -34 20 -50 0
-28 0 -28 -66 -28 l-66 0 6 32 c13 65 66 89 106 46z"/>
<path d="M2040 2575 c0 -107 1 -115 19 -115 18 0 20 9 23 98 4 117 1 132 -23
132 -18 0 -19 -9 -19 -115z"/>
<path d="M2103 2683 c-22 -8 -14 -25 7 -18 12 4 27 2 34 -4 10 -9 15 -8 19 3
3 8 3 17 0 20 -7 7 -43 7 -60 -1z"/>
<path d="M2205 2634 c14 -31 37 -83 51 -114 25 -57 25 -57 7 -96 -16 -33 -23
-39 -47 -36 -22 2 -27 -1 -24 -15 4 -24 40 -28 60 -6 17 18 139 315 133 322
-10 9 -23 -14 -50 -88 -17 -45 -32 -81 -35 -81 -3 0 -22 37 -41 83 -28 63 -41
83 -58 85 l-21 3 25 -57z"/>
<path d="M2592 2523 c3 -151 5 -168 21 -171 15 -3 17 5 17 69 0 69 1 71 18 56
30 -28 89 -22 123 12 25 26 29 37 29 86 0 49 -4 60 -29 86 -34 34 -93 40 -123
12 -17 -15 -18 -15 -18 0 0 10 -8 17 -20 17 -20 0 -20 -5 -18 -167z m148 127
c15 -15 20 -33 20 -75 0 -42 -5 -60 -20 -75 -26 -26 -64 -25 -90 3 -18 18 -21
31 -18 81 3 42 10 62 23 72 27 20 62 17 85 -6z"/>
<path d="M2881 2674 c-16 -12 -20 -19 -12 -27 8 -8 17 -4 34 11 13 12 33 22
45 22 25 0 52 -35 52 -68 0 -19 -4 -23 -17 -17 -72 28 -133 1 -133 -59 0 -50
24 -76 71 -76 22 0 49 5 60 10 13 7 19 7 19 0 0 -5 7 -10 15 -10 12 0 15 17
15 95 0 82 -3 98 -20 115 -25 25 -96 27 -129 4z m103 -106 c9 -12 16 -29 16
-37 0 -20 -40 -61 -60 -61 -22 0 -60 37 -60 58 0 32 29 62 60 62 18 0 34 -8
44 -22z"/>
<path d="M3391 2674 c-16 -12 -20 -19 -12 -27 8 -8 17 -5 31 11 40 42 100 14
100 -46 0 -19 -4 -23 -17 -17 -76 30 -133 2 -133 -65 0 -29 6 -43 22 -54 26
-18 80 -21 109 -6 13 7 19 7 19 0 0 -5 7 -10 15 -10 12 0 15 17 15 95 0 82 -3
98 -20 115 -25 25 -96 27 -129 4z m103 -106 c23 -32 20 -54 -11 -77 -58 -47
-126 26 -73 79 27 27 65 26 84 -2z"/>
<path d="M3620 2575 c0 -96 3 -115 15 -115 12 0 15 16 15 83 0 101 16 132 62
123 21 -4 28 -2 26 7 -7 19 -48 20 -69 1 -17 -16 -19 -16 -19 -1 0 10 -7 17
-15 17 -12 0 -15 -19 -15 -115z"/>
<path d="M3800 2575 c0 -108 1 -115 20 -115 19 0 20 7 20 115 0 108 -1 115
-20 115 -19 0 -20 -7 -20 -115z"/>
<path d="M3941 2674 c-16 -12 -20 -19 -12 -27 8 -8 17 -4 34 11 13 12 33 22
45 22 25 0 52 -35 52 -68 0 -19 -4 -23 -17 -17 -10 4 -32 9 -50 12 -65 11
-110 -80 -63 -127 22 -22 78 -27 111 -10 13 7 19 7 19 0 0 -5 7 -10 15 -10 12
0 15 17 15 95 0 82 -3 98 -20 115 -25 25 -96 27 -129 4z m105 -109 c33 -50
-14 -107 -71 -85 -55 21 -35 110 25 110 20 0 35 -8 46 -25z"/>
<path d="M4178 2679 c-23 -13 -24 -72 -3 -93 9 -9 34 -21 56 -27 62 -19 77
-70 23 -83 -26 -7 -53 3 -74 28 -16 20 -30 20 -30 2 0 -44 113 -63 150 -26 42
42 19 87 -60 115 -60 21 -73 41 -44 69 21 22 50 20 75 -5 11 -11 25 -19 32
-16 6 2 2 12 -11 25 -24 24 -83 30 -114 11z"/>
<path d="M1572 2093 c3 -244 3 -249 29 -304 34 -72 96 -134 168 -168 l56 -26
340 -3 c382 -3 485 7 628 59 324 120 564 346 690 652 l16 37 -157 0 -157 0
-37 -64 c-119 -203 -351 -352 -601 -386 -43 -5 -210 -10 -371 -10 -261 0 -295
2 -307 17 -11 12 -14 65 -16 227 l-2 211 -141 3 -142 3 4 -248z"/>
<path d="M1960 2160 l0 -180 93 1 c50 0 193 4 317 9 202 7 233 10 306 34 92
29 182 84 261 159 50 47 123 137 123 151 0 3 -83 6 -184 6 l-184 0 -78 -37
c-78 -38 -81 -38 -221 -41 l-142 -4 -3 39 -3 38 -142 3 -143 3 0 -181z"/>
</g>
</svg>
