<svg width="63" height="62" viewBox="0 0 63 62" fill="none" xmlns="http://www.w3.org/2000/svg">
<g id="material-symbols:search">
<path id="Vector" d="M51.1573 54.1405L34.951 37.9626C33.6648 38.9898 32.1857 39.8029 30.5136 40.4021C28.8415 41.0013 27.0623 41.3009 25.1758 41.3009C20.5026 41.3009 16.5479 39.6848 13.3118 36.4527C10.0757 33.2205 8.45679 29.2727 8.45508 24.6094C8.45508 19.9443 10.074 15.9965 13.3118 12.7661C16.5496 9.53564 20.5043 7.91956 25.1758 7.91785C29.8491 7.91785 33.8037 9.53393 37.0399 12.7661C40.276 15.9983 41.8949 19.946 41.8966 24.6094C41.8966 26.4925 41.5965 28.2687 40.9962 29.9378C40.396 31.607 39.5814 33.0835 38.5524 34.3675L54.7587 50.5454L51.1573 54.1405ZM25.1758 36.165C28.3914 36.165 31.125 35.0412 33.3767 32.7934C35.6284 30.5456 36.7535 27.8176 36.7517 24.6094C36.7517 21.3995 35.6259 18.6706 33.3741 16.4228C31.1224 14.175 28.3896 13.052 25.1758 13.0537C21.9603 13.0537 19.2267 14.1776 16.9749 16.4254C14.7232 18.6732 13.5982 21.4012 13.5999 24.6094C13.5999 27.8193 14.7258 30.5481 16.9775 32.7959C19.2292 35.0437 21.962 36.1668 25.1758 36.165Z" fill="#E49011"/>
</g>
</svg>
