<svg width="13" height="10" viewBox="0 0 13 10" fill="none" xmlns="http://www.w3.org/2000/svg">
<path id="Vector" d="M8.40488 9.36399C7.18904 9.36399 6.15921 8.94126 5.31538 8.09581C4.47155 7.25035 4.04964 6.21854 4.04964 5.00036C4.04964 3.79126 4.47155 2.76163 5.31538 1.91145C6.15921 1.06126 7.18904 0.636355 8.40488 0.636719C9.61165 0.636719 10.6393 1.06163 11.4879 1.91145C12.3364 2.76126 12.7605 3.7909 12.7601 5.00036C12.7601 6.21854 12.336 7.25035 11.4879 8.09581C10.6397 8.94126 9.61201 9.36399 8.40488 9.36399ZM8.40488 8.27308C9.31222 8.27308 10.0835 7.9549 10.7186 7.31854C11.3537 6.68217 11.6713 5.90945 11.6713 5.00036C11.6713 4.09126 11.3537 3.31854 10.7186 2.68217C10.0835 2.04581 9.31222 1.72763 8.40488 1.72763C7.49754 1.72763 6.7263 2.04581 6.09116 2.68217C5.45602 3.31854 5.13845 4.09126 5.13845 5.00036C5.13845 5.90945 5.45602 6.68217 6.09116 7.31854C6.7263 7.9549 7.49754 8.27308 8.40488 8.27308ZM8.94929 4.78217V3.36399C8.94929 3.20945 8.89703 3.07981 8.7925 2.97508C8.68797 2.87036 8.55877 2.81817 8.40488 2.81854C8.25063 2.81854 8.12125 2.8709 8.01672 2.97563C7.9122 3.08036 7.86011 3.20981 7.86048 3.36399V5.01399C7.86048 5.08672 7.87645 5.15726 7.90838 5.22563C7.94032 5.29399 7.97879 5.35072 8.0238 5.39581L9.26232 6.63672C9.3712 6.74581 9.50059 6.80036 9.65048 6.80036C9.80038 6.80036 9.92958 6.74581 10.0381 6.63672C10.147 6.52763 10.2014 6.39817 10.2014 6.24836C10.2014 6.09854 10.147 5.9689 10.0381 5.85945L8.94929 4.78217ZM1.87202 3.36399C1.71777 3.36399 1.58838 3.31163 1.48385 3.2069C1.37933 3.10217 1.32725 2.97272 1.32761 2.81854C1.32761 2.66399 1.37987 2.53436 1.4844 2.42963C1.58893 2.3249 1.71813 2.27272 1.87202 2.27308H2.96083C3.11508 2.27308 3.24446 2.32545 3.34899 2.43017C3.45351 2.5349 3.5056 2.66436 3.50523 2.81854C3.50523 2.97308 3.45297 3.10272 3.34844 3.20745C3.24392 3.31217 3.11471 3.36436 2.96083 3.36399H1.87202ZM1.32761 5.54581C1.17336 5.54581 1.04398 5.49345 0.939449 5.38872C0.834923 5.28399 0.782842 5.15454 0.783205 5.00036C0.783205 4.84581 0.835468 4.71617 0.939994 4.61145C1.04452 4.50672 1.17373 4.45454 1.32761 4.4549H2.96083C3.11508 4.4549 3.24446 4.50726 3.34899 4.61199C3.45351 4.71672 3.5056 4.84617 3.50523 5.00036C3.50523 5.1549 3.45297 5.28454 3.34844 5.38926C3.24392 5.49399 3.11471 5.54617 2.96083 5.54581H1.32761ZM1.87202 7.72763C1.71777 7.72763 1.58838 7.67526 1.48385 7.57054C1.37933 7.46581 1.32725 7.33636 1.32761 7.18217C1.32761 7.02763 1.37987 6.89799 1.4844 6.79326C1.58893 6.68854 1.71813 6.63636 1.87202 6.63672H2.96083C3.11508 6.63672 3.24446 6.68908 3.34899 6.79381C3.45351 6.89854 3.5056 7.02799 3.50523 7.18217C3.50523 7.33672 3.45297 7.46635 3.34844 7.57108C3.24392 7.67581 3.11471 7.72799 2.96083 7.72763H1.87202Z" fill="#E49011"/>
</svg>
