<svg width="25" height="41" viewBox="0 0 25 41" fill="none" xmlns="http://www.w3.org/2000/svg">
<g id="Frame">
<path id="Vector" d="M12.6575 17.0729C13.2075 17.0729 13.6575 16.6229 13.6575 16.0729V14.0729H15.6575C16.2075 14.0729 16.6575 13.6229 16.6575 13.0729C16.6575 12.5229 16.2075 12.0729 15.6575 12.0729H13.6575V10.0729C13.6575 9.52288 13.2075 9.07288 12.6575 9.07288C12.1075 9.07288 11.6575 9.52288 11.6575 10.0729V12.0729H9.65747C9.10747 12.0729 8.65747 12.5229 8.65747 13.0729C8.65747 13.6229 9.10747 14.0729 9.65747 14.0729H11.6575V16.0729C11.6575 16.6229 12.1075 17.0729 12.6575 17.0729ZM7.65747 26.0729C6.55747 26.0729 5.66747 26.9729 5.66747 28.0729C5.66747 29.1729 6.55747 30.0729 7.65747 30.0729C8.75747 30.0729 9.65747 29.1729 9.65747 28.0729C9.65747 26.9729 8.75747 26.0729 7.65747 26.0729ZM17.6575 26.0729C16.5575 26.0729 15.6675 26.9729 15.6675 28.0729C15.6675 29.1729 16.5575 30.0729 17.6575 30.0729C18.7575 30.0729 19.6575 29.1729 19.6575 28.0729C19.6575 26.9729 18.7575 26.0729 17.6575 26.0729ZM8.75747 21.0729H16.2075C16.9575 21.0729 17.6175 20.6629 17.9575 20.0429L21.1975 13.9029C21.3197 13.6716 21.3462 13.4017 21.2714 13.1511C21.1966 12.9005 21.0264 12.6893 20.7975 12.5629C20.6815 12.4994 20.5541 12.4596 20.4226 12.4458C20.291 12.4321 20.1581 12.4447 20.0315 12.4828C19.9049 12.521 19.7872 12.584 19.6852 12.6681C19.5832 12.7522 19.499 12.8558 19.4375 12.9729L16.2075 19.0729H9.18747L4.92747 10.0729H2.65747C2.10747 10.0729 1.65747 10.5229 1.65747 11.0729C1.65747 11.6229 2.10747 12.0729 2.65747 12.0729H3.65747L7.25747 19.6629L5.90747 22.1029C5.17747 23.4429 6.13747 25.0729 7.65747 25.0729H18.6575C19.2075 25.0729 19.6575 24.6229 19.6575 24.0729C19.6575 23.5229 19.2075 23.0729 18.6575 23.0729H7.65747L8.75747 21.0729Z" fill="#6A696E"/>
</g>
</svg>
