<svg width="63" height="62" viewBox="0 0 63 62" fill="none" xmlns="http://www.w3.org/2000/svg">
<g id="bi:card-checklist" clip-path="url(#clip0_101_586)">
<g id="Group">
<path id="Vector" d="M56.4829 11.7697C56.9946 11.7697 57.4854 11.9726 57.8472 12.3338C58.209 12.695 58.4123 13.1848 58.4123 13.6956V48.3627C58.4123 48.8734 58.209 49.3633 57.8472 49.7245C57.4854 50.0857 56.9946 50.2886 56.4829 50.2886H6.32067C5.80898 50.2886 5.31825 50.0857 4.95643 49.7245C4.59462 49.3633 4.39135 48.8734 4.39135 48.3627V13.6956C4.39135 13.1848 4.59462 12.695 4.95643 12.3338C5.31825 11.9726 5.80898 11.7697 6.32067 11.7697H56.4829ZM6.32067 7.9178C4.78561 7.9178 3.31342 8.52654 2.22797 9.61009C1.14252 10.6936 0.532715 12.1633 0.532715 13.6956L0.532715 48.3627C0.532715 49.895 1.14252 51.3646 2.22797 52.4482C3.31342 53.5318 4.78561 54.1405 6.32067 54.1405H56.4829C58.018 54.1405 59.4902 53.5318 60.5756 52.4482C61.6611 51.3646 62.2709 49.895 62.2709 48.3627V13.6956C62.2709 12.1633 61.6611 10.6936 60.5756 9.61009C59.4902 8.52654 58.018 7.9178 56.4829 7.9178H6.32067Z" fill="#E49011"/>
<path id="Vector_2" d="M27.5434 21.3994C27.5434 20.8886 27.7466 20.3988 28.1084 20.0376C28.4703 19.6764 28.961 19.4735 29.4727 19.4735H48.7659C49.2775 19.4735 49.7683 19.6764 50.1301 20.0376C50.4919 20.3988 50.6952 20.8886 50.6952 21.3994C50.6952 21.9102 50.4919 22.4001 50.1301 22.7613C49.7683 23.1224 49.2775 23.3254 48.7659 23.3254H29.4727C28.961 23.3254 28.4703 23.1224 28.1084 22.7613C27.7466 22.4001 27.5434 21.9102 27.5434 21.3994ZM21.7708 18.1099C21.9505 18.2888 22.0931 18.5013 22.1903 18.7353C22.2876 18.9693 22.3377 19.2201 22.3377 19.4735C22.3377 19.7268 22.2876 19.9776 22.1903 20.2116C22.0931 20.4456 21.9505 20.6581 21.7708 20.837L15.9829 26.6149C15.8037 26.7942 15.5908 26.9365 15.3564 27.0336C15.122 27.1307 14.8707 27.1807 14.6169 27.1807C14.3632 27.1807 14.1119 27.1307 13.8775 27.0336C13.6431 26.9365 13.4302 26.7942 13.251 26.6149L11.3217 24.6889C11.1423 24.5099 11 24.2973 10.9029 24.0633C10.8058 23.8294 10.7559 23.5786 10.7559 23.3254C10.7559 22.8139 10.9594 22.3234 11.3217 21.9618C11.6839 21.6002 12.1753 21.397 12.6876 21.397C13.1999 21.397 13.6913 21.6002 14.0536 21.9618L14.6169 22.528L19.0389 18.1099C19.2181 17.9305 19.431 17.7882 19.6654 17.6912C19.8998 17.5941 20.1511 17.5441 20.4049 17.5441C20.6587 17.5441 20.9099 17.5941 21.1443 17.6912C21.3787 17.7882 21.5916 17.9305 21.7708 18.1099ZM27.5434 36.807C27.5434 36.2962 27.7466 35.8063 28.1084 35.4451C28.4703 35.0839 28.961 34.881 29.4727 34.881H48.7659C49.2775 34.881 49.7683 35.0839 50.1301 35.4451C50.4919 35.8063 50.6952 36.2962 50.6952 36.807C50.6952 37.3178 50.4919 37.8076 50.1301 38.1688C49.7683 38.53 49.2775 38.7329 48.7659 38.7329H29.4727C28.961 38.7329 28.4703 38.53 28.1084 38.1688C27.7466 37.8076 27.5434 37.3178 27.5434 36.807ZM21.7708 33.5175C21.9505 33.6964 22.0931 33.9089 22.1903 34.1429C22.2876 34.3769 22.3377 34.6277 22.3377 34.881C22.3377 35.1344 22.2876 35.3852 22.1903 35.6192C22.0931 35.8532 21.9505 36.0657 21.7708 36.2446L15.9829 42.0224C15.8037 42.2018 15.5908 42.3441 15.3564 42.4412C15.122 42.5383 14.8707 42.5883 14.6169 42.5883C14.3632 42.5883 14.1119 42.5383 13.8775 42.4412C13.6431 42.3441 13.4302 42.2018 13.251 42.0224L11.3217 40.0965C11.1423 39.9174 11 39.7048 10.9029 39.4709C10.8058 39.2369 10.7559 38.9862 10.7559 38.7329C10.7559 38.4797 10.8058 38.2289 10.9029 37.995C11 37.761 11.1423 37.5484 11.3217 37.3694C11.501 37.1903 11.714 37.0482 11.9484 36.9513C12.1827 36.8544 12.4339 36.8046 12.6876 36.8046C12.9413 36.8046 13.1925 36.8544 13.4269 36.9513C13.6612 37.0482 13.8742 37.1903 14.0536 37.3694L14.6169 37.9356L19.0389 33.5175C19.2181 33.3381 19.431 33.1958 19.6654 33.0987C19.8998 33.0016 20.1511 32.9516 20.4049 32.9516C20.6587 32.9516 20.9099 33.0016 21.1443 33.0987C21.3787 33.1958 21.5916 33.3381 21.7708 33.5175Z" fill="#E49011"/>
</g>
</g>
<defs>
<clipPath id="clip0_101_586">
<rect width="61.7382" height="61.6303" fill="white" transform="translate(0.533203 0.21402)"/>
</clipPath>
</defs>
</svg>
