<svg width="48" height="49" viewBox="0 0 48 49" fill="none" xmlns="http://www.w3.org/2000/svg">
<g id="carbon:location-filled">
<path id="Vector" d="M24.6021 13.0642C21.5928 13.0678 18.7078 14.2648 16.5799 16.3926C14.452 18.5205 13.255 21.4055 13.2515 24.4148C13.2479 26.874 14.0512 29.2665 15.5381 31.2252C15.5381 31.2252 15.8477 31.6328 15.8982 31.6916L24.6021 41.9567L33.3101 31.6864C33.3555 31.6318 33.6661 31.2252 33.6661 31.2252L33.6671 31.2221C35.1533 29.2642 35.9562 26.8729 35.9527 24.4148C35.9492 21.4055 34.7521 18.5205 32.6243 16.3926C30.4964 14.2648 27.6114 13.0678 24.6021 13.0642ZM24.6021 28.5423C23.7857 28.5423 22.9877 28.3002 22.309 27.8467C21.6302 27.3932 21.1012 26.7485 20.7888 25.9943C20.4764 25.2401 20.3946 24.4102 20.5539 23.6096C20.7132 22.8089 21.1063 22.0735 21.6835 21.4962C22.2608 20.919 22.9962 20.5259 23.7969 20.3666C24.5975 20.2074 25.4274 20.2891 26.1816 20.6015C26.9358 20.9139 27.5804 21.4429 28.034 22.1217C28.4875 22.8005 28.7296 23.5985 28.7296 24.4148C28.7282 25.5091 28.2929 26.5581 27.5192 27.3319C26.7454 28.1057 25.6964 28.541 24.6021 28.5423Z" fill="#FC7310"/>
</g>
</svg>
