<svg width="21" height="20" viewBox="0 0 21 20" fill="none" xmlns="http://www.w3.org/2000/svg">
<g id="carbon:location-filled">
<path id="Vector" d="M10.4766 1.25C8.65387 1.25215 6.90643 1.97717 5.61759 3.26602C4.32874 4.55486 3.60372 6.3023 3.60157 8.125C3.59939 9.61452 4.08593 11.0636 4.98657 12.25C4.98657 12.25 5.17407 12.4969 5.20469 12.5325L10.4766 18.75L15.7509 12.5294C15.7784 12.4963 15.9666 12.25 15.9666 12.25L15.9672 12.2481C16.8674 11.0623 17.3537 9.61383 17.3516 8.125C17.3494 6.3023 16.6244 4.55486 15.3356 3.26602C14.0467 1.97717 12.2993 1.25215 10.4766 1.25ZM10.4766 10.625C9.98212 10.625 9.49877 10.4784 9.08764 10.2037C8.67652 9.92897 8.35609 9.53852 8.16687 9.08171C7.97765 8.62489 7.92814 8.12223 8.02461 7.63727C8.12107 7.15232 8.35917 6.70686 8.7088 6.35723C9.05843 6.0076 9.50389 5.7695 9.98884 5.67304C10.4738 5.57657 10.9765 5.62608 11.4333 5.8153C11.8901 6.00452 12.2805 6.32495 12.5552 6.73607C12.8299 7.1472 12.9766 7.63055 12.9766 8.125C12.9757 8.78779 12.7121 9.42319 12.2434 9.89185C11.7748 10.3605 11.1394 10.6242 10.4766 10.625Z" fill="#FC7310"/>
</g>
</svg>
