<svg width="21" height="21" viewBox="0 0 21 21" fill="none" xmlns="http://www.w3.org/2000/svg">
<g id="carbon:location-filled">
<path id="Vector" d="M10.397 1.75C8.57434 1.75215 6.8269 2.47717 5.53806 3.76602C4.24921 5.05486 3.52419 6.8023 3.52204 8.625C3.51986 10.1145 4.0064 11.5636 4.90704 12.75C4.90704 12.75 5.09454 12.9969 5.12517 13.0325L10.397 19.25L15.6714 13.0294C15.6989 12.9963 15.887 12.75 15.887 12.75L15.8877 12.7481C16.7879 11.5623 17.2742 10.1138 17.272 8.625C17.2699 6.8023 16.5449 5.05486 15.256 3.76602C13.9672 2.47717 12.2197 1.75215 10.397 1.75ZM10.397 11.125C9.90259 11.125 9.41924 10.9784 9.00812 10.7037C8.59699 10.429 8.27656 10.0385 8.08734 9.58171C7.89812 9.12489 7.84861 8.62223 7.94508 8.13727C8.04154 7.65232 8.27964 7.20686 8.62927 6.85723C8.97891 6.5076 9.42436 6.2695 9.90932 6.17304C10.3943 6.07657 10.8969 6.12608 11.3537 6.3153C11.8106 6.50452 12.201 6.82495 12.4757 7.23607C12.7504 7.6472 12.897 8.13055 12.897 8.625C12.8962 9.28779 12.6326 9.92319 12.1639 10.3919C11.6952 10.8605 11.0598 11.1242 10.397 11.125Z" fill="#FC7310"/>
</g>
</svg>
