<svg width="10" height="20" viewBox="0 0 10 20" fill="none" xmlns="http://www.w3.org/2000/svg">
<g id="eva:arrow-down-fill" clip-path="url(#clip0_7_11)">
<g id="evaArrowDownFill0">
<g id="evaArrowDownFill1">
<path id="evaArrowDownFill2" d="M5 14.1667C4.78725 14.1656 4.57742 14.1172 4.38571 14.0249C4.19401 13.9327 4.02524 13.7989 3.89166 13.6334L0.38333 9.38335C0.178325 9.12749 0.0493183 8.81919 0.0110109 8.49358C-0.0272965 8.16796 0.0266361 7.83814 0.166663 7.54169C0.28023 7.28404 0.465558 7.06453 0.700513 6.90937C0.935468 6.75421 1.21012 6.66996 1.49166 6.66669H8.50833C8.78988 6.66996 9.06453 6.75421 9.29948 6.90937C9.53444 7.06453 9.71976 7.28404 9.83333 7.54169C9.97336 7.83814 10.0273 8.16796 9.98898 8.49358C9.95068 8.81919 9.82167 9.12749 9.61666 9.38335L6.10833 13.6334C5.97475 13.7989 5.80598 13.9327 5.61428 14.0249C5.42257 14.1172 5.21274 14.1656 5 14.1667Z" fill="#E49011"/>
</g>
</g>
</g>
<defs>
<clipPath id="clip0_7_11">
<rect width="10" height="20" fill="white"/>
</clipPath>
</defs>
</svg>
