<svg width="62" height="62" viewBox="0 0 62 62" fill="none" xmlns="http://www.w3.org/2000/svg">
<g id="ic:baseline-contact-phone" clip-path="url(#clip0_101_578)">
<path id="Vector" d="M56.7818 7.95486H5.33332C2.50366 7.95486 0.188477 10.266 0.188477 13.0907V49.0417C0.188477 51.8664 2.50366 54.1776 5.33332 54.1776H56.7818C59.6115 54.1776 61.9009 51.8664 61.9009 49.0417L61.9267 13.0907C61.9267 10.266 59.6115 7.95486 56.7818 7.95486ZM20.7679 15.6586C25.0381 15.6586 28.4851 19.0997 28.4851 23.3624C28.4851 27.6252 25.0381 31.0662 20.7679 31.0662C16.4976 31.0662 13.0506 27.6252 13.0506 23.3624C13.0506 19.0997 16.4976 15.6586 20.7679 15.6586ZM36.2024 46.4738H5.33332V43.9058C5.33332 38.77 15.623 35.9453 20.7679 35.9453C25.9127 35.9453 36.2024 38.77 36.2024 43.9058V46.4738ZM46.1062 36.2021H50.325L54.2094 41.3379L49.0903 46.4481C45.6823 43.8986 43.2135 40.2966 42.0675 36.2021C41.6045 34.5586 41.3473 32.8381 41.3473 31.0662C41.3473 29.2943 41.6045 27.5738 42.0675 25.9304C43.2067 21.8327 45.6769 18.2287 49.0903 15.6843L54.2094 20.7945L50.325 25.9304H46.1062C45.5403 27.5482 45.2059 29.2687 45.2059 31.0662C45.2059 32.8638 45.5403 34.5843 46.1062 36.2021Z" fill="#E49011"/>
</g>
<defs>
<clipPath id="clip0_101_578">
<rect width="61.7382" height="61.6303" fill="white" transform="translate(0.188477 0.251083)"/>
</clipPath>
</defs>
</svg>
