<svg width="33" height="33" viewBox="0 0 33 33" fill="none" xmlns="http://www.w3.org/2000/svg">
<g id="mdi:cart">
<path id="Vector" d="M23.375 24.75C21.8487 24.75 20.625 25.9737 20.625 27.5C20.625 28.2293 20.9147 28.9288 21.4305 29.4445C21.9462 29.9603 22.6457 30.25 23.375 30.25C24.1043 30.25 24.8038 29.9603 25.3195 29.4445C25.8353 28.9288 26.125 28.2293 26.125 27.5C26.125 26.7707 25.8353 26.0712 25.3195 25.5555C24.8038 25.0397 24.1043 24.75 23.375 24.75ZM1.375 2.75V5.5H4.125L9.075 15.9363L7.205 19.305C6.99875 19.69 6.875 20.1437 6.875 20.625C6.875 21.3543 7.16473 22.0538 7.68046 22.5695C8.19618 23.0853 8.89565 23.375 9.625 23.375H26.125V20.625H10.2025C10.1113 20.625 10.0239 20.5888 9.95943 20.5243C9.89497 20.4599 9.85875 20.3724 9.85875 20.2812C9.85875 20.2125 9.8725 20.1575 9.9 20.1163L11.1375 17.875H21.3813C22.4125 17.875 23.32 17.2975 23.7875 16.4588L28.71 7.5625C28.8062 7.3425 28.875 7.10875 28.875 6.875C28.875 6.51033 28.7301 6.16059 28.4723 5.90273C28.2144 5.64487 27.8647 5.5 27.5 5.5H7.16375L5.87125 2.75M9.625 24.75C8.09875 24.75 6.875 25.9737 6.875 27.5C6.875 28.2293 7.16473 28.9288 7.68046 29.4445C8.19618 29.9603 8.89565 30.25 9.625 30.25C10.3543 30.25 11.0538 29.9603 11.5695 29.4445C12.0853 28.9288 12.375 28.2293 12.375 27.5C12.375 26.7707 12.0853 26.0712 11.5695 25.5555C11.0538 25.0397 10.3543 24.75 9.625 24.75Z" fill="#717171"/>
</g>
</svg>
