<svg width="24" height="24" viewBox="0 0 24 24" fill="none" xmlns="http://www.w3.org/2000/svg">
<g id="mi:search">
<path id="Vector" d="M10 4.00002C8.4087 4.00002 6.88258 4.63216 5.75736 5.75738C4.63214 6.88259 4 8.40872 4 10C4 11.5913 4.63214 13.1174 5.75736 14.2427C6.88258 15.3679 8.4087 16 10 16C11.5913 16 13.1174 15.3679 14.2426 14.2427C15.3679 13.1174 16 11.5913 16 10C16 8.40872 15.3679 6.88259 14.2426 5.75738C13.1174 4.63216 11.5913 4.00002 10 4.00002ZM2 10C2.00018 8.72688 2.30422 7.47216 2.88684 6.34016C3.46946 5.20815 4.31384 4.23154 5.3498 3.4915C6.38577 2.75146 7.5834 2.26935 8.84315 2.08525C10.1029 1.90114 11.3884 2.02036 12.5928 2.43299C13.7973 2.84562 14.8858 3.53975 15.768 4.45768C16.6502 5.37562 17.3006 6.49085 17.6651 7.71069C18.0296 8.93054 18.0977 10.2198 17.8638 11.4712C17.6298 12.7227 17.1006 13.9002 16.32 14.906L21.707 20.293C21.8892 20.4816 21.99 20.7342 21.9877 20.9964C21.9854 21.2586 21.8802 21.5094 21.6948 21.6948C21.5094 21.8802 21.2586 21.9854 20.9964 21.9877C20.7342 21.99 20.4816 21.8892 20.293 21.707L14.906 16.32C13.7235 17.2381 12.307 17.806 10.8178 17.959C9.32851 18.112 7.82619 17.8441 6.48165 17.1857C5.1371 16.5273 4.00429 15.5048 3.21202 14.2345C2.41976 12.9642 1.99983 11.4971 2 10Z" fill="#E49011"/>
</g>
</svg>
